<svg width="16" height="14" viewBox="0 0 16 14" fill="none" xmlns="http://www.w3.org/2000/svg">
<path id="Vector" d="M8.43503 2.82162C9.70104 0.688424 11.4945 0.293288 12.7587 0.584534L12.7586 0.585026C14.3714 0.956833 15.5 2.38161 15.5 4.06011C15.5 5.45967 14.9514 6.67878 14.0302 7.8806C13.1005 9.09365 11.8218 10.2513 10.3999 11.5356L10.3985 11.5368C10.0174 11.8837 9.69789 12.1832 9.42714 12.4404C9.0007 12.8434 8.69863 13.1179 8.45212 13.294C8.2075 13.4686 8.07938 13.5 8 13.5C7.92065 13.5 7.79254 13.4686 7.54788 13.2939C7.30135 13.1179 6.99928 12.8433 6.57284 12.4404C6.30337 12.1844 5.98308 11.8814 5.60043 11.5359C4.17855 10.2477 2.8997 9.08671 1.96979 7.87281C1.04825 6.66985 0.5 5.45272 0.5 4.06011C0.5 2.38478 1.62818 0.959524 3.24165 0.584961C4.51164 0.292763 6.3064 0.687879 7.57528 2.82197L8.00545 3.54546L8.43503 2.82162Z" stroke="#E22726"/>
</svg>
